<svg width="36" height="36" viewBox="0 0 36 36" fill="none" xmlns="http://www.w3.org/2000/svg">
<path d="M26.43 16.125C25.785 16.125 25.275 15.6 25.275 14.97C25.275 14.415 24.72 13.26 23.79 12.255C22.875 11.28 21.87 10.71 21.03 10.71C20.385 10.71 19.875 10.185 19.875 9.55502C19.875 8.92502 20.4 8.40002 21.03 8.40002C22.53 8.40002 24.105 9.21002 25.485 10.665C26.775 12.03 27.6 13.725 27.6 14.955C27.6 15.6 27.075 16.125 26.43 16.125Z" fill="white"/>
<path d="M31.8446 16.125C31.1996 16.125 30.6896 15.6 30.6896 14.97C30.6896 9.645 26.3546 5.325 21.0446 5.325C20.3996 5.325 19.8896 4.8 19.8896 4.17C19.8896 3.54 20.3996 3 21.0296 3C27.6296 3 32.9996 8.37 32.9996 14.97C32.9996 15.6 32.4746 16.125 31.8446 16.125Z" fill="white"/>
<path d="M16.575 22.425L13.8 25.2C13.215 25.785 12.285 25.785 11.685 25.215C11.52 25.05 11.355 24.9 11.19 24.735C9.645 23.175 8.25 21.54 7.005 19.83C5.775 18.12 4.785 16.41 4.065 14.715C3.36 13.005 3 11.37 3 9.81C3 8.79 3.18 7.815 3.54 6.915C3.9 6 4.47 5.16 5.265 4.41C6.225 3.465 7.275 3 8.385 3C8.805 3 9.225 3.09 9.6 3.27C9.99 3.45 10.335 3.72 10.605 4.11L14.085 9.015C14.355 9.39 14.55 9.735 14.685 10.065C14.82 10.38 14.895 10.695 14.895 10.98C14.895 11.34 14.79 11.7 14.58 12.045C14.385 12.39 14.1 12.75 13.74 13.11L12.6 14.295C12.435 14.46 12.36 14.655 12.36 14.895C12.36 15.015 12.375 15.12 12.405 15.24C12.45 15.36 12.495 15.45 12.525 15.54C12.795 16.035 13.26 16.68 13.92 17.46C14.595 18.24 15.315 19.035 16.095 19.83C16.245 19.98 16.41 20.13 16.56 20.28C17.16 20.865 17.175 21.825 16.575 22.425Z" fill="white"/>
<path d="M32.9554 27.495C32.9554 27.915 32.8804 28.35 32.7304 28.77C32.6854 28.89 32.6404 29.01 32.5804 29.13C32.3254 29.67 31.9954 30.18 31.5604 30.66C30.8254 31.47 30.0154 32.055 29.1004 32.43C29.0854 32.43 29.0704 32.445 29.0554 32.445C28.1704 32.805 27.2104 33 26.1754 33C24.6454 33 23.0104 32.64 21.2854 31.905C19.5604 31.17 17.8354 30.18 16.1254 28.935C15.5404 28.5 14.9554 28.065 14.4004 27.6L19.3054 22.695C19.7254 23.01 20.1004 23.25 20.4154 23.415C20.4904 23.445 20.5804 23.49 20.6854 23.535C20.8054 23.58 20.9254 23.595 21.0604 23.595C21.3154 23.595 21.5104 23.505 21.6754 23.34L22.8154 22.215C23.1904 21.84 23.5504 21.555 23.8954 21.375C24.2404 21.165 24.5854 21.06 24.9604 21.06C25.2454 21.06 25.5454 21.12 25.8754 21.255C26.2054 21.39 26.5504 21.585 26.9254 21.84L31.8904 25.365C32.2804 25.635 32.5504 25.95 32.7154 26.325C32.8654 26.7 32.9554 27.075 32.9554 27.495Z" fill="white"/>
</svg>
