<svg width="279" height="66" viewBox="0 0 279 66" fill="none" xmlns="http://www.w3.org/2000/svg">
<rect x="0.5" y="0.5" width="277.71" height="65" rx="9.5" fill="white"/>
<g clip-path="url(#clip0_242_1218)">
<path d="M94.8545 20.1094H71.8545C71.3014 20.1094 70.8545 20.5702 70.8545 21.1406V44.8594C70.8545 45.4298 71.3014 45.8906 71.8545 45.8906H94.8545C95.4076 45.8906 95.8545 45.4298 95.8545 44.8594V21.1406C95.8545 20.5702 95.4076 20.1094 94.8545 20.1094ZM91.967 27.6343H89.9701C88.4045 27.6343 88.1014 28.4013 88.1014 29.5292V32.0139H91.8389L91.3514 35.9036H88.1014V45.8906H84.2045V35.9068H80.9451V32.0139H84.2045V29.1457C84.2045 25.8167 86.1764 24.0023 89.0576 24.0023C90.4389 24.0023 91.6232 24.1087 91.9701 24.157V27.6343H91.967Z" fill="#3B5998"/>
<path d="M120.458 28.196C120.458 28.468 120.322 28.604 120.05 28.604H112.346C112.25 28.604 112.202 28.652 112.202 28.748V32.42C112.202 32.516 112.25 32.564 112.346 32.564H117.362C117.634 32.564 117.77 32.7 117.77 32.972V35.06C117.77 35.332 117.634 35.468 117.362 35.468H112.346C112.25 35.468 112.202 35.516 112.202 35.612V42.092C112.202 42.364 112.066 42.5 111.794 42.5H109.226C108.954 42.5 108.818 42.364 108.818 42.092V26.108C108.818 25.836 108.954 25.7 109.226 25.7H120.05C120.322 25.7 120.458 25.836 120.458 26.108V28.196ZM125.804 29.972C126.844 29.972 127.772 30.156 128.588 30.524C129.404 30.876 130.036 31.364 130.484 31.988C130.948 32.612 131.18 33.308 131.18 34.076V42.092C131.18 42.364 131.044 42.5 130.772 42.5H128.204C127.932 42.5 127.796 42.364 127.796 42.092V41.516C127.796 41.452 127.78 41.42 127.748 41.42C127.716 41.404 127.676 41.42 127.628 41.468C126.892 42.284 125.796 42.692 124.34 42.692C123.108 42.692 122.116 42.388 121.364 41.78C120.612 41.172 120.236 40.276 120.236 39.092C120.236 37.86 120.668 36.908 121.532 36.236C122.396 35.548 123.628 35.204 125.228 35.204H127.652C127.748 35.204 127.796 35.156 127.796 35.06V34.556C127.796 34.028 127.628 33.62 127.292 33.332C126.972 33.028 126.5 32.876 125.876 32.876C125.396 32.876 124.996 32.956 124.676 33.116C124.372 33.276 124.164 33.5 124.052 33.788C123.956 34.012 123.796 34.116 123.572 34.1L120.908 33.764C120.78 33.748 120.676 33.716 120.596 33.668C120.532 33.604 120.508 33.524 120.524 33.428C120.604 32.772 120.876 32.18 121.34 31.652C121.82 31.124 122.444 30.716 123.212 30.428C123.996 30.124 124.86 29.972 125.804 29.972ZM125.324 40.172C126.012 40.172 126.596 39.988 127.076 39.62C127.556 39.252 127.796 38.78 127.796 38.204V37.364C127.796 37.268 127.748 37.22 127.652 37.22H125.948C125.228 37.22 124.66 37.356 124.244 37.628C123.828 37.9 123.62 38.284 123.62 38.78C123.62 39.212 123.772 39.556 124.076 39.812C124.396 40.052 124.812 40.172 125.324 40.172ZM138.964 42.692C137.684 42.692 136.572 42.372 135.628 41.732C134.7 41.092 134.036 40.212 133.636 39.092C133.364 38.292 133.228 37.348 133.228 36.26C133.228 35.188 133.364 34.26 133.636 33.476C134.02 32.388 134.684 31.532 135.628 30.908C136.572 30.284 137.684 29.972 138.964 29.972C140.244 29.972 141.364 30.292 142.324 30.932C143.3 31.572 143.948 32.38 144.268 33.356C144.364 33.58 144.428 33.828 144.46 34.1V34.148C144.46 34.356 144.34 34.484 144.1 34.532L141.58 34.916L141.46 34.94C141.268 34.94 141.156 34.844 141.124 34.652L141.052 34.316C140.94 33.9 140.692 33.556 140.308 33.284C139.924 33.012 139.468 32.876 138.94 32.876C138.428 32.876 137.996 33.004 137.644 33.26C137.292 33.516 137.044 33.868 136.9 34.316C136.724 34.796 136.636 35.452 136.636 36.284C136.636 37.116 136.716 37.772 136.876 38.252C137.02 38.732 137.268 39.108 137.62 39.38C137.988 39.652 138.428 39.788 138.94 39.788C139.436 39.788 139.868 39.66 140.236 39.404C140.62 39.132 140.884 38.772 141.028 38.324L141.052 38.204C141.068 38.14 141.124 38.068 141.22 37.988C141.316 37.892 141.42 37.852 141.532 37.868L144.052 38.252C144.18 38.284 144.268 38.34 144.316 38.42C144.38 38.5 144.404 38.596 144.388 38.708C144.356 38.964 144.316 39.148 144.268 39.26C143.932 40.332 143.276 41.172 142.3 41.78C141.34 42.388 140.228 42.692 138.964 42.692ZM152.242 39.836C153.298 39.788 154.106 39.42 154.666 38.732C154.762 38.62 154.866 38.564 154.978 38.564C155.074 38.564 155.162 38.604 155.242 38.684L156.61 40.004C156.706 40.1 156.754 40.196 156.754 40.292C156.754 40.404 156.722 40.5 156.658 40.58C156.13 41.236 155.45 41.756 154.618 42.14C153.802 42.508 152.906 42.692 151.93 42.692C150.458 42.692 149.234 42.316 148.258 41.564C147.298 40.812 146.65 39.78 146.314 38.468C146.122 37.764 146.026 37.02 146.026 36.236C146.026 35.308 146.114 34.524 146.29 33.884C146.61 32.7 147.25 31.748 148.21 31.028C149.186 30.308 150.338 29.948 151.666 29.948C153.234 29.948 154.474 30.412 155.386 31.34C156.314 32.268 156.914 33.572 157.186 35.252C157.25 35.78 157.298 36.364 157.33 37.004C157.33 37.276 157.194 37.412 156.922 37.412H149.554C149.458 37.412 149.41 37.46 149.41 37.556C149.458 37.892 149.514 38.14 149.578 38.3C149.738 38.796 150.05 39.18 150.514 39.452C150.994 39.708 151.57 39.836 152.242 39.836ZM151.618 32.876C151.106 32.876 150.674 33.004 150.322 33.26C149.986 33.5 149.754 33.844 149.626 34.292C149.546 34.596 149.498 34.796 149.482 34.892C149.466 34.988 149.506 35.036 149.602 35.036H153.682C153.762 35.036 153.802 35.004 153.802 34.94C153.802 34.764 153.77 34.58 153.706 34.388C153.562 33.924 153.314 33.556 152.962 33.284C152.61 33.012 152.162 32.876 151.618 32.876ZM170.335 33.308C170.639 34.108 170.791 35.1 170.791 36.284C170.791 37.436 170.655 38.396 170.383 39.164C170.063 40.22 169.479 41.076 168.631 41.732C167.799 42.372 166.839 42.692 165.751 42.692C164.583 42.692 163.671 42.26 163.015 41.396C162.983 41.348 162.943 41.332 162.895 41.348C162.863 41.348 162.847 41.38 162.847 41.444V42.092C162.847 42.364 162.711 42.5 162.439 42.5H159.871C159.599 42.5 159.463 42.364 159.463 42.092V26.108C159.463 25.836 159.599 25.7 159.871 25.7H162.439C162.711 25.7 162.847 25.836 162.847 26.108V31.052C162.847 31.116 162.863 31.156 162.895 31.172C162.943 31.188 162.983 31.172 163.015 31.124C163.655 30.34 164.567 29.948 165.751 29.948C166.839 29.948 167.783 30.252 168.583 30.86C169.399 31.468 169.983 32.284 170.335 33.308ZM166.735 38.708C167.071 38.084 167.239 37.3 167.239 36.356C167.239 35.316 167.047 34.476 166.663 33.836C166.279 33.228 165.719 32.924 164.983 32.924C164.311 32.924 163.775 33.236 163.375 33.86C163.039 34.452 162.871 35.276 162.871 36.332C162.871 37.324 163.031 38.116 163.351 38.708C163.735 39.396 164.279 39.74 164.983 39.74C165.767 39.74 166.351 39.396 166.735 38.708ZM178.246 42.692C176.886 42.692 175.726 42.34 174.766 41.636C173.806 40.932 173.15 39.972 172.798 38.756C172.574 38.004 172.462 37.188 172.462 36.308C172.462 35.332 172.582 34.484 172.822 33.764C173.19 32.58 173.846 31.652 174.79 30.98C175.75 30.308 176.91 29.972 178.27 29.972C179.582 29.972 180.702 30.308 181.63 30.98C182.574 31.652 183.23 32.572 183.598 33.74C183.838 34.476 183.958 35.316 183.958 36.26C183.958 37.092 183.854 37.9 183.646 38.684C183.278 39.932 182.614 40.916 181.654 41.636C180.71 42.34 179.574 42.692 178.246 42.692ZM178.246 39.788C178.758 39.788 179.198 39.628 179.566 39.308C179.934 38.988 180.198 38.548 180.358 37.988C180.486 37.556 180.55 36.996 180.55 36.308C180.55 35.636 180.486 35.068 180.358 34.604C180.198 34.06 179.934 33.636 179.566 33.332C179.198 33.028 178.742 32.876 178.198 32.876C177.67 32.876 177.222 33.028 176.854 33.332C176.486 33.636 176.222 34.06 176.062 34.604C175.934 35.068 175.87 35.636 175.87 36.308C175.87 36.964 175.934 37.524 176.062 37.988C176.222 38.548 176.486 38.988 176.854 39.308C177.238 39.628 177.702 39.788 178.246 39.788ZM191.606 42.692C190.246 42.692 189.086 42.34 188.126 41.636C187.166 40.932 186.51 39.972 186.158 38.756C185.934 38.004 185.822 37.188 185.822 36.308C185.822 35.332 185.942 34.484 186.182 33.764C186.55 32.58 187.206 31.652 188.15 30.98C189.11 30.308 190.27 29.972 191.63 29.972C192.942 29.972 194.062 30.308 194.99 30.98C195.934 31.652 196.59 32.572 196.958 33.74C197.198 34.476 197.318 35.316 197.318 36.26C197.318 37.092 197.214 37.9 197.006 38.684C196.638 39.932 195.974 40.916 195.014 41.636C194.07 42.34 192.934 42.692 191.606 42.692ZM191.606 39.788C192.118 39.788 192.558 39.628 192.926 39.308C193.294 38.988 193.558 38.548 193.718 37.988C193.846 37.556 193.91 36.996 193.91 36.308C193.91 35.636 193.846 35.068 193.718 34.604C193.558 34.06 193.294 33.636 192.926 33.332C192.558 33.028 192.102 32.876 191.558 32.876C191.03 32.876 190.582 33.028 190.214 33.332C189.846 33.636 189.582 34.06 189.422 34.604C189.294 35.068 189.23 35.636 189.23 36.308C189.23 36.964 189.294 37.524 189.422 37.988C189.582 38.548 189.846 38.988 190.214 39.308C190.598 39.628 191.062 39.788 191.606 39.788ZM199.901 42.5C199.629 42.5 199.493 42.364 199.493 42.092V26.108C199.493 25.836 199.629 25.7 199.901 25.7H202.469C202.741 25.7 202.877 25.836 202.877 26.108V34.028C202.877 34.092 202.893 34.132 202.925 34.148C202.973 34.148 203.013 34.124 203.045 34.076L206.237 30.404C206.397 30.244 206.565 30.164 206.741 30.164H209.645C209.757 30.164 209.845 30.188 209.909 30.236C209.973 30.268 210.005 30.324 210.005 30.404C210.005 30.5 209.973 30.588 209.909 30.668L206.957 34.364C206.909 34.412 206.901 34.476 206.933 34.556L210.461 42.02L210.509 42.212C210.509 42.404 210.389 42.5 210.149 42.5H207.437C207.213 42.5 207.053 42.396 206.957 42.188L204.629 36.692C204.581 36.596 204.517 36.588 204.437 36.668L202.949 38.564C202.901 38.628 202.877 38.684 202.877 38.732V42.092C202.877 42.364 202.741 42.5 202.469 42.5H199.901Z" fill="#3B5998"/>
</g>
<rect x="0.5" y="0.5" width="277.71" height="65" rx="9.5" stroke="#3B5998"/>
<defs>
<clipPath id="clip0_242_1218">
<rect width="144" height="33" fill="white" transform="translate(67.3545 16.5)"/>
</clipPath>
</defs>
</svg>
