<svg width="36" height="36" viewBox="0 0 36 36" fill="none" xmlns="http://www.w3.org/2000/svg">
<path d="M9 19.4998C4.86 19.4998 1.5 22.8448 1.5 26.9998C1.5 31.1548 4.86 34.4998 9 34.4998C13.14 34.4998 16.5 31.1398 16.5 26.9998C16.5 22.8598 13.155 19.4998 9 19.4998ZM5.94 23.9398H9C9.57 23.9398 10.02 24.4048 10.02 24.9598C10.02 25.5148 9.57 25.9798 9 25.9798H5.94C5.37 25.9798 4.92 25.5148 4.92 24.9598C4.92 24.4048 5.37 23.9398 5.94 23.9398ZM12.06 30.0598H5.94C5.37 30.0598 4.92 29.5948 4.92 29.0398C4.92 28.4848 5.385 28.0198 5.94 28.0198H12.075C12.645 28.0198 13.095 28.4848 13.095 29.0398C13.095 29.5948 12.63 30.0598 12.06 30.0598Z" fill="white"/>
<path d="M25.5 4.5H10.5C6 4.5 3 6.75 3 12V16.71C3 17.805 4.125 18.495 5.13 18.06C6.78 17.34 8.655 17.07 10.62 17.385C14.55 18.03 17.76 21.135 18.555 25.035C18.78 26.175 18.81 27.285 18.66 28.35C18.54 29.235 19.26 30.015 20.145 30.015H25.5C30 30.015 33 27.765 33 22.515V12C33 6.75 30 4.5 25.5 4.5ZM26.205 12.885L21.51 16.635C20.52 17.43 19.26 17.82 18 17.82C16.74 17.82 15.465 17.43 14.49 16.635L9.795 12.885C9.315 12.495 9.24 11.775 9.615 11.295C10.005 10.815 10.71 10.725 11.19 11.115L15.885 14.865C17.025 15.78 18.96 15.78 20.1 14.865L24.795 11.115C25.275 10.725 25.995 10.8 26.37 11.295C26.76 11.775 26.685 12.495 26.205 12.885Z" fill="white"/>
</svg>
